<svg width="1200" height="900" xmlns="http://www.w3.org/2000/svg">
 <!-- Title -->
 <!-- User -->
 <!-- Arrow down -->
 <!-- NGINX -->
 <!-- Arrows to apps -->
 <!-- App 1 -->
 <!-- App 2 -->
 <!-- Arrows from apps to Redis (going down-center) -->
 <!-- Redis (center) -->
 <!-- Arrows from apps to Prometheus (going down-left) -->
 <!-- Prometheus (left bottom) -->
 <!-- Grafana (right bottom) -->
 <!-- Arrow Grafana -> Prometheus (query) -->
 <!-- Arrow marker definition -->
 <defs>
  <marker id="arrow" markerWidth="10" markerHeight="10" refX="9" refY="3" orient="auto" markerUnits="strokeWidth">
   <path d="m0,0l0,6l9,-3l-9,-3z" fill="#333" id="svg_1"/>
  </marker>
 </defs>
 <!-- Legend -->
 <g>
  <title>Layer 1</title>
  <text x="400" y="30" class="title" font-family="monospace" font-size="18px" fill="#333" font-weight="bold" id="svg_2">DevOps Test - Architecture Diagram</text>
  <rect x="500" y="50" width="120" height="40" fill="#e3f2fd" stroke="#1976d2" rx="5" id="svg_3"/>
  <text x="560" y="75" text-anchor="middle" font-family="monospace" font-size="14px" fill="#333" id="svg_4">User</text>
  <line x1="560" y1="90" x2="560" y2="120" stroke="#333" stroke-width="2" marker-end="url(#arrow)" id="svg_5"/>
  <rect x="460" y="120" width="200" height="60" fill="#fff3e0" stroke="#f57c00" rx="5" id="svg_6"/>
  <text x="560" y="145" text-anchor="middle" font-family="monospace" font-size="14px" fill="#333" id="svg_7">NGINX</text>
  <text x="560" y="165" text-anchor="middle" class="label" font-family="monospace" font-size="12px" fill="#666" id="svg_8">Port 8080</text>
  <line x1="460" y1="150" x2="320" y2="220" stroke="#333" stroke-width="2" marker-end="url(#arrow)" id="svg_9"/>
  <line x1="660" y1="150" x2="800" y2="220" stroke="#333" stroke-width="2" marker-end="url(#arrow)" id="svg_10"/>
  <rect x="160" y="220" width="180" height="80" fill="#e8f5e9" stroke="#388e3c" rx="5" id="svg_11"/>
  <text x="250" y="245" text-anchor="middle" font-family="monospace" font-size="14px" fill="#333" id="svg_12">App 1 - Python</text>
  <text x="250" y="265" text-anchor="middle" class="label" font-family="monospace" font-size="12px" fill="#666" id="svg_13">FastAPI :8001</text>
  <text x="250" y="285" text-anchor="middle" class="label" font-family="monospace" font-size="12px" fill="#666" id="svg_14">Cache: 10s</text>
  <rect x="780" y="220" width="180" height="80" fill="#e8f5e9" stroke="#388e3c" rx="5" id="svg_15"/>
  <text x="870" y="245" text-anchor="middle" font-family="monospace" font-size="14px" fill="#333" id="svg_16">App 2 - Go</text>
  <text x="870" y="265" text-anchor="middle" class="label" font-family="monospace" font-size="12px" fill="#666" id="svg_17">:8002</text>
  <text x="870" y="285" text-anchor="middle" class="label" font-family="monospace" font-size="12px" fill="#666" id="svg_18">Cache: 60s</text>
  <path stroke="#333" stroke-width="2" opacity="undefined" marker-end="url(#arrow)" d="m250,300l270,80" id="svg_19"/>
  <line x1="870" y1="300" x2="600" y2="380" stroke="#333" stroke-width="2" marker-end="url(#arrow)" id="svg_20"/>
  <ellipse cx="560" cy="420" rx="100" ry="50" fill="#fff8e1" stroke="#fbc02d" id="svg_21"/>
  <text x="560" y="415" text-anchor="middle" font-family="monospace" font-size="14px" fill="#333" id="svg_22">Redis</text>
  <text x="560" y="435" text-anchor="middle" class="label" font-family="monospace" font-size="12px" fill="#666" id="svg_23">Cache :6379</text>
  <path stroke-width="2" stroke-dasharray="5,5" opacity="undefined" marker-end="url(#arrow)" d="m376.38918,247.71817l0,444.76403" id="svg_24" stroke="#333" transform="rotate(-40.5855 376.389 470.1)"/>
  <text x="728" y="470" class="label" font-family="monospace" font-size="12px" fill="#666" id="svg_27" transform="rotate(-48.0787 774.188 466)">scrape metrics</text>
  <rect y="643" width="180" height="60" fill="#fce4ec" stroke="#c2185b" rx="5" id="svg_28" x="469"/>
  <text x="559" y="669" text-anchor="middle" font-family="monospace" font-size="14px" fill="#333" id="svg_29">Prometheus</text>
  <text x="558.80469" y="685" text-anchor="middle" class="label" font-family="monospace" font-size="12px" fill="#666" id="svg_30" stroke="null">:9090</text>
  <rect x="470" y="791" width="180" height="60" fill="#fce4ec" stroke="#c2185b" rx="5" id="svg_31"/>
  <text x="564" y="812" text-anchor="middle" font-family="monospace" font-size="14px" fill="#333" id="svg_32">Grafana</text>
  <text x="564" y="831" text-anchor="middle" class="label" font-family="monospace" font-size="12px" fill="#666" id="svg_33">:3001</text>
  <path stroke-width="2" opacity="undefined" marker-end="url(#arrow)" d="m591.16246,744.02161l-78.09813,0" id="svg_34" stroke="#333" transform="rotate(-90.1412 552.113 744.022)"/>
  <text x="602" y="740" text-anchor="middle" class="label" font-family="monospace" font-size="12px" fill="#666" id="svg_35">query metrics</text>
  <rect x="50" y="720" width="220" height="150" fill="#fafafa" stroke="#ccc" rx="5" id="svg_36"/>
  <text x="60" y="740" class="title" font-family="monospace" font-size="18px" fill="#333" font-weight="bold" id="svg_37">Legend:</text>
  <rect x="60" y="750" width="15" height="15" fill="#fff3e0" stroke="#f57c00" id="svg_38"/>
  <text x="85" y="763" font-family="monospace" font-size="14px" fill="#333" id="svg_39">Gateway/Proxy</text>
  <rect x="60" y="770" width="15" height="15" fill="#e8f5e9" stroke="#388e3c" id="svg_40"/>
  <text x="85" y="783" font-family="monospace" font-size="14px" fill="#333" id="svg_41">Applications</text>
  <ellipse cx="67" cy="800" rx="8" ry="8" fill="#fff8e1" stroke="#fbc02d" id="svg_42"/>
  <text x="85" y="804" font-family="monospace" font-size="14px" fill="#333" id="svg_43">Cache (Redis)</text>
  <rect x="60" y="815" width="15" height="15" fill="#fce4ec" stroke="#c2185b" id="svg_44"/>
  <text x="85" y="828" font-family="monospace" font-size="14px" fill="#333" id="svg_45">Monitoring</text>
  <line x1="60" y1="845" x2="75" y2="845" stroke="#333" stroke-width="2" stroke-dasharray="5,5" id="svg_46"/>
  <text x="85" y="850" font-family="monospace" font-size="14px" fill="#333" id="svg_47">Metrics scrape</text>
  <path stroke-width="2" stroke-dasharray="5,5" opacity="undefined" marker-end="url(#arrow)" d="m737.92198,241.83998l0,457.48534" id="svg_48" stroke="#333" transform="rotate(42.2742 737.922 470.583)"/>
  <text x="295" y="458" class="label" font-family="monospace" font-size="12px" fill="#666" id="svg_49" transform="rotate(49.9618 341.188 454)">scrape metrics</text>
 </g>
</svg>